<?xml version="1.0" encoding="utf-8"?>
<!-- Generator: Adobe Illustrator 27.5.0, SVG Export Plug-In . SVG Version: 6.00 Build 0)  -->
<svg version="1.1" xmlns="http://www.w3.org/2000/svg" xmlns:xlink="http://www.w3.org/1999/xlink" x="0px" y="0px"
	 viewBox="0 0 750 500" style="enable-background:new 0 0 750 500; fill:#06040b" xml:space="preserve">
<g id="BACKGROUND">
	<rect width="750" height="500"/>
</g>
<g id="OBJECTS">
	<path id="BACK_SHAPE" style="fill:#7EC9AB;" d="M73.68,194.841c39.212-87.719,142.166-96.887,260.172-44.75
		s181.777-102.047,314.382-7.247c92.535,66.154,35.869,248.916-256.762,294.765C98.841,483.456,35.32,280.654,73.68,194.841z"/>
	<g id="SHAPES">
		<g>
			<polygon style="fill:none;stroke:#1C0000;stroke-linecap:round;stroke-linejoin:round;stroke-miterlimit:10;" points="
				365.104,76.357 355.947,90.075 339.501,88.841 348.657,75.124 			"/>
			<polygon style="fill:none;stroke:#1C0000;stroke-linecap:round;stroke-linejoin:round;stroke-miterlimit:10;" points="
				339.501,88.841 346.348,102.884 362.794,104.117 355.947,90.075 			"/>
			<polygon style="fill:none;stroke:#1C0000;stroke-linecap:round;stroke-linejoin:round;stroke-miterlimit:10;" points="
				365.104,76.357 355.947,90.075 362.794,104.117 371.951,90.4 			"/>
		</g>
		<g>
			<polygon style="fill:none;stroke:#1C0000;stroke-linecap:round;stroke-linejoin:round;stroke-miterlimit:10;" points="
				361.535,374.894 378.003,375.81 385.297,390.603 368.829,389.686 			"/>
			<polygon style="fill:none;stroke:#1C0000;stroke-linecap:round;stroke-linejoin:round;stroke-miterlimit:10;" points="
				385.297,390.603 393.913,377.57 386.619,362.778 378.003,375.81 			"/>
			<polygon style="fill:none;stroke:#1C0000;stroke-linecap:round;stroke-linejoin:round;stroke-miterlimit:10;" points="
				361.535,374.894 378.003,375.81 386.619,362.778 370.151,361.861 			"/>
		</g>
		<g>
			<polygon style="fill:none;stroke:#BC2856;stroke-linecap:round;stroke-linejoin:round;stroke-miterlimit:10;" points="
				56.493,154.052 63.676,168.899 54.275,182.45 47.092,167.603 			"/>
			<polygon style="fill:none;stroke:#BC2856;stroke-linecap:round;stroke-linejoin:round;stroke-miterlimit:10;" points="
				54.275,182.45 69.85,183.667 79.251,170.115 63.676,168.899 			"/>
			<polygon style="fill:none;stroke:#BC2856;stroke-linecap:round;stroke-linejoin:round;stroke-miterlimit:10;" points="
				56.493,154.052 63.676,168.899 79.251,170.115 72.069,155.269 			"/>
		</g>
		<g>
			<polygon style="fill:none;stroke:#7EC9AB;stroke-linecap:round;stroke-linejoin:round;stroke-miterlimit:10;" points="
				613.963,431.476 621.146,446.323 611.745,459.874 604.562,445.027 			"/>
			<polygon style="fill:none;stroke:#7EC9AB;stroke-linecap:round;stroke-linejoin:round;stroke-miterlimit:10;" points="
				611.745,459.874 627.32,461.091 636.721,447.54 621.146,446.323 			"/>
			<polygon style="fill:none;stroke:#7EC9AB;stroke-linecap:round;stroke-linejoin:round;stroke-miterlimit:10;" points="
				613.963,431.476 621.146,446.323 636.721,447.54 629.539,432.693 			"/>
		</g>
		<g>
			<polygon style="fill:none;stroke:#BC2856;stroke-linecap:round;stroke-linejoin:round;stroke-miterlimit:10;" points="
				694.615,182.962 678.47,186.332 673.471,202.049 689.616,198.68 			"/>
			<polygon style="fill:none;stroke:#BC2856;stroke-linecap:round;stroke-linejoin:round;stroke-miterlimit:10;" points="
				673.471,202.049 663.003,190.453 668.001,174.736 678.47,186.332 			"/>
			<polygon style="fill:none;stroke:#BC2856;stroke-linecap:round;stroke-linejoin:round;stroke-miterlimit:10;" points="
				694.615,182.962 678.47,186.332 668.001,174.736 684.146,171.366 			"/>
		</g>
		<polygon style="fill:none;stroke:#FF9B40;stroke-linecap:round;stroke-linejoin:round;stroke-miterlimit:10;" points="
			415.512,138.595 404.184,146.478 408.18,133.268 397.182,124.93 410.98,124.649 415.512,111.613 420.043,124.649 433.841,124.93 
			422.844,133.268 426.84,146.478 		"/>
		<polygon style="fill:none;stroke:#1C0000;stroke-linecap:round;stroke-linejoin:round;stroke-miterlimit:10;" points="
			69.645,302.796 66.317,316.19 60.619,303.62 46.853,304.594 57.047,295.291 51.866,282.499 63.864,289.32 74.429,280.44 
			71.65,293.958 83.36,301.262 		"/>
		<g>
			
				<circle style="fill:#FF9B40;stroke:#1C0000;stroke-linecap:round;stroke-linejoin:round;stroke-miterlimit:10;" cx="90.728" cy="382.748" r="11.627"/>
			<path style="fill:none;stroke:#1C0000;stroke-linecap:round;stroke-linejoin:round;stroke-miterlimit:10;" d="M102.357,382.502
				c-3.199,2.523-7.238,4.029-11.628,4.029c-4.391,0-8.43-1.506-11.629-4.029"/>
		</g>
		<g>
			
				<circle style="fill:#FF9B40;stroke:#1C0000;stroke-linecap:round;stroke-linejoin:round;stroke-miterlimit:10;" cx="714.545" cy="362.778" r="11.627"/>
			<path style="fill:none;stroke:#1C0000;stroke-linecap:round;stroke-linejoin:round;stroke-miterlimit:10;" d="M726.174,362.532
				c-3.199,2.523-7.238,4.029-11.629,4.029c-4.391,0-8.43-1.506-11.629-4.029"/>
		</g>
		<g>
			
				<circle style="fill:#FF9B40;stroke:#1C0000;stroke-linecap:round;stroke-linejoin:round;stroke-miterlimit:10;" cx="260.821" cy="447.288" r="11.628"/>
			<path style="fill:none;stroke:#1C0000;stroke-linecap:round;stroke-linejoin:round;stroke-miterlimit:10;" d="M268.87,438.892
				c-0.478,4.046-2.269,7.967-5.373,11.072c-3.105,3.105-7.025,4.896-11.072,5.374"/>
		</g>
		<g>
			
				<circle style="fill:#FF9B40;stroke:#1C0000;stroke-linecap:round;stroke-linejoin:round;stroke-miterlimit:10;" cx="570.611" cy="54.023" r="11.628"/>
			<path style="fill:none;stroke:#1C0000;stroke-linecap:round;stroke-linejoin:round;stroke-miterlimit:10;" d="M579.008,62.072
				c-4.046-0.478-7.967-2.269-11.072-5.374c-3.105-3.105-4.896-7.025-5.373-11.072"/>
		</g>
		<g>
			
				<circle style="fill:#FF9B40;stroke:#1C0000;stroke-linecap:round;stroke-linejoin:round;stroke-miterlimit:10;" cx="466.886" cy="163.218" r="11.627"/>
			<path style="fill:none;stroke:#1C0000;stroke-linecap:round;stroke-linejoin:round;stroke-miterlimit:10;" d="M475.282,171.267
				c-4.046-0.478-7.967-2.269-11.072-5.373c-3.105-3.105-4.896-7.025-5.374-11.072"/>
		</g>
	</g>
	<g id="PAPERPLANE">
		<g>
			<path style="fill:#829ADA;" d="M228.475,70.992l-0.705,8.387l-4.052-3.879c0,0-22.808-24.024-23.156-24.256
				c-0.347-0.231-5.152-10.941-5.152-10.941l19.277,9.552L228.475,70.992z"/>
			<path style="fill:none;stroke:#1C0000;stroke-linecap:round;stroke-linejoin:round;stroke-miterlimit:10;" d="M228.475,70.992
				l-0.705,8.387l-4.052-3.879c0,0-22.808-24.024-23.156-24.256c-0.347-0.231-5.152-10.941-5.152-10.941l19.277,9.552
				L228.475,70.992z"/>
			<path style="fill:#D9E3FC;" d="M246.538,54.023l-51.127-13.72l33.065,30.688C237.39,62.608,246.538,54.023,246.538,54.023z"/>
			<path style="fill:#D9E3FC;" d="M195.411,40.304c0,0,9.204,53.49,9.899,52.622c0.306-0.383,9.499-9.035,18.409-17.425
				C216.19,65.293,195.411,40.304,195.411,40.304z"/>
			<path style="fill:none;stroke:#1C0000;stroke-linecap:round;stroke-linejoin:round;stroke-miterlimit:10;" d="M246.538,54.023
				l-51.127-13.72l33.065,30.688C237.39,62.608,246.538,54.023,246.538,54.023z"/>
			<path style="fill:none;stroke:#1C0000;stroke-linecap:round;stroke-linejoin:round;stroke-miterlimit:10;" d="M195.411,40.304
				c0,0,9.204,53.49,9.899,52.622c0.306-0.383,9.499-9.035,18.409-17.425C216.19,65.293,195.411,40.304,195.411,40.304z"/>
		</g>
		
			<line style="fill:none;stroke:#1C0000;stroke-linecap:round;stroke-linejoin:round;stroke-miterlimit:10;" x1="337.099" y1="144.585" x2="246.538" y2="54.023"/>
		
			<line style="fill:none;stroke:#1C0000;stroke-linecap:round;stroke-linejoin:round;stroke-miterlimit:10;" x1="251.564" y1="103.172" x2="227.771" y2="79.379"/>
		
			<line style="fill:none;stroke:#1C0000;stroke-linecap:round;stroke-linejoin:round;stroke-miterlimit:10;" x1="332.916" y1="220.531" x2="205.31" y2="92.925"/>
	</g>
	<g id="LINES">
		
			<line style="fill:none;stroke:#1C0000;stroke-linecap:round;stroke-linejoin:round;stroke-miterlimit:10;" x1="584.124" y1="467.771" x2="489.229" y2="372.876"/>
		
			<line style="fill:none;stroke:#1C0000;stroke-linecap:round;stroke-linejoin:round;stroke-miterlimit:10;" x1="505.16" y1="136.4" x2="435.329" y2="66.569"/>
		
			<line style="fill:none;stroke:#1C0000;stroke-linecap:round;stroke-linejoin:round;stroke-miterlimit:10;" x1="485.001" y1="289.385" x2="415.17" y2="219.555"/>
		
			<line style="fill:none;stroke:#1C0000;stroke-linecap:round;stroke-linejoin:round;stroke-miterlimit:10;" x1="665.656" y1="265.166" x2="595.826" y2="195.336"/>
		
			<line style="fill:none;stroke:#1C0000;stroke-linecap:round;stroke-linejoin:round;stroke-miterlimit:10;" x1="702.916" y1="171.315" x2="633.086" y2="101.485"/>
		<g>
			
				<line style="fill:none;stroke:#1C0000;stroke-linecap:round;stroke-linejoin:round;stroke-miterlimit:10;" x1="115.093" y1="167.413" x2="54.258" y2="106.577"/>
			
				<line style="fill:none;stroke:#1C0000;stroke-linecap:round;stroke-linejoin:round;stroke-miterlimit:10;" x1="122.766" y1="175.085" x2="119.103" y2="171.422"/>
			
				<line style="fill:none;stroke:#1C0000;stroke-linecap:round;stroke-linejoin:round;stroke-miterlimit:10;" x1="181.864" y1="234.183" x2="128.207" y2="180.527"/>
		</g>
		
			<line style="fill:none;stroke:#1C0000;stroke-linecap:round;stroke-linejoin:round;stroke-miterlimit:10;" x1="335.445" y1="465.206" x2="278.391" y2="408.152"/>
		<g>
			
				<line style="fill:none;stroke:#1C0000;stroke-linecap:round;stroke-linejoin:round;stroke-miterlimit:10;" x1="369.673" y1="415.974" x2="312.619" y2="358.92"/>
			
				<line style="fill:none;stroke:#1C0000;stroke-linecap:round;stroke-linejoin:round;stroke-miterlimit:10;" x1="381.127" y1="427.428" x2="377.464" y2="423.765"/>
			
				<line style="fill:none;stroke:#1C0000;stroke-linecap:round;stroke-linejoin:round;stroke-miterlimit:10;" x1="413.397" y1="459.698" x2="386.569" y2="432.869"/>
		</g>
	</g>
	<g id="GIRL_GAMMING">
		<path style="fill:#67B292;" d="M337.221,172.072c-1.46-4.177-6.03-6.38-10.208-4.919l-221.926,77.591
			c-4.177,1.46-6.38,6.031-4.919,10.208L152.104,403.5c4.371,2.816,8.922,5.521,13.658,8.104l219.844-76.863
			c4.177-1.461,6.38-6.031,4.919-10.208L337.221,172.072z"/>
		<g>
			<path style="fill:#6275C1;" d="M141.379,209.401l-24.127,6.465c-4.274,1.145-6.811,5.539-5.666,9.813l41.802,156.008
				c1.145,4.274,5.539,6.811,9.813,5.666l24.127-6.465L141.379,209.401z"/>
			<path style="fill:#829ADA;" d="M398.504,324.304l-227.089,60.848c-4.274,1.145-8.668-1.391-9.813-5.666L119.8,223.478
				c-1.145-4.274,1.391-8.668,5.666-9.813l227.089-60.848c4.274-1.145,8.668,1.391,9.813,5.666l41.802,156.008
				C405.315,318.765,402.778,323.159,398.504,324.304z"/>
			<path style="fill:#D9E3FC;" d="M169.37,377.519c-0.059,0.016-0.12-0.02-0.135-0.078l-41.802-156.008
				c-0.016-0.059,0.02-0.119,0.078-0.135l227.089-60.848c0.059-0.016,0.119,0.019,0.135,0.078l41.802,156.008
				c0.016,0.059-0.019,0.12-0.078,0.135L169.37,377.519z"/>
			<path style="fill:#BECDE5;" d="M261.538,352.823l4.991-168.775l-35.823,9.599c4.621,13.348,14.639,17.026,14.639,17.026
				l-2.129,10.449c-86.123,17.143-85.305,60.132-75.811,74.374c9.494,14.242,36.132,5.152,36.132,5.152
				c0.418,22.686-3.015,56.046-4.457,68.912L261.538,352.823z"/>
			<path style="fill:none;stroke:#1C0000;stroke-linecap:round;stroke-linejoin:round;stroke-miterlimit:10;" d="M125.465,213.665
				l-8.213,2.201c-4.274,1.145-6.811,5.539-5.666,9.813l41.802,156.008c1.145,4.274,5.539,6.811,9.813,5.666l8.213-2.201"/>
			<path style="fill:none;stroke:#1C0000;stroke-linecap:round;stroke-linejoin:round;stroke-miterlimit:10;" d="M398.504,324.304
				l-227.089,60.848c-4.274,1.145-8.668-1.391-9.813-5.666L119.8,223.478c-1.145-4.274,1.391-8.668,5.666-9.813l227.089-60.848
				c4.274-1.145,8.668,1.391,9.813,5.666l41.802,156.008C405.315,318.765,402.778,323.159,398.504,324.304z"/>
		</g>
		<g>
			<g>
				<path style="fill:#FF9B40;" d="M286.768,230.114l-23.637,3.397l-26.853-5.828c-15.43,4.366-28.182,11.723-37.816,19.563
					l3.679,21.259l16.669,11.692c0.307,14.761-1.315,33.575-3.268,50.25l39.424,21.355l49.527-16.733
					c-0.169-30.57-1.767-56.868-1.767-56.868l4.19,3.412l13.275-1.994l0.911-19.916h0
					C312.862,249.561,300.952,237.388,286.768,230.114z"/>
				<path style="fill:#ED8435;" d="M291.288,255.207c0.338,0.463-59.634,3.959-59.977,5.771c-0.222,1.171-8.824,10.836-14.894,17.54
					l2.393,1.679c0.307,14.761-1.315,33.575-3.268,50.25l17.621,9.545c1.522-15.113,2.005-34.083,0.057-57.157
					c0,0,5.44-3.909,9.086-8.571l4.352,0.692c0,0,1.187,8.11,8.604,8.901c7.418,0.791,14.44-14.873,14.44-14.873
					s10.088,3.202,19.582,2.708c0,0,2.919,13.772,14.005,17.5c-0.313-6.865-0.563-10.99-0.563-10.99l8.28,6.743l6.717-14.001
					C317.725,270.943,290.95,254.744,291.288,255.207z"/>
				<path style="fill:#8C545F;" d="M241.597,248.534c3.994-2.779,8.249-4.95,13.199-3.213c4.949,1.737-3.908,7.207-3.908,7.207
					L241.597,248.534z"/>
				<path style="fill:#91636A;" d="M317.056,258.375l-5.442-2.605v-1.913c0,0,5.583-0.689,8.579,3.132
					c2.996,3.821,3.642,7.154,3.642,7.154s-2.134,0.716-2.438,0.368C321.093,264.164,317.056,258.375,317.056,258.375z"/>
				<path style="fill:#1C0000;stroke:#1C0000;stroke-linecap:round;stroke-linejoin:round;stroke-miterlimit:10;" d="
					M267.879,263.498c0,0-3.589,15.514-12.388,15.514c-8.799,0-8.271-16.244-7.641-21.882c0.63-5.638,4.515-14.356,12.388-15.283
					c7.873-0.926,12.504,5.775,22.577,6.766c10.073,0.991,14.007-4.883,23.155-3.914c9.148,0.969,10.306,23.098,3.706,32.468
					c-6.599,9.37-14.704-5.449-16.093-11.354C293.582,265.814,280.499,266.045,267.879,263.498z"/>
				<path style="fill:none;stroke:#1C0000;stroke-linecap:round;stroke-linejoin:round;stroke-miterlimit:10;" d="M280.704,263.721
					c0,0-6.978,39.083,12.82,50.893c19.798,11.81,41.507,0.894,54.358-14.749c11.924-14.514,26.24-19.149,40.312-14.472"/>
				<path style="fill:#8C545F;" d="M180.639,267.203l38.171,12.994c-2.403-11.783-14.032-25.949-20.348-32.951
					C190.05,254.091,184.012,261.301,180.639,267.203z"/>
				<path style="fill:#7F4553;" d="M306.918,281.614l20.473,16.671l6.076-21.118c0,0-4.522-7.812-12.364-17.463
					C316.375,271.643,310.195,278.552,306.918,281.614z"/>
				<path style="fill:#6574C3;" d="M304.507,341.241c0.002-2.071-0.001-4.132-0.013-6.172c-8.061,3.274-20.58,6.581-38.53,6.811
					c-24.502,0.314-41.802-6.804-50.422-11.433c-1.82,15.542-3.926,29.216-5.026,36.026L304.507,341.241z"/>
				<path style="fill:#5568B5;" d="M210.517,366.473l19.465-5.226c1.341-6.526,2.577-14.385,3.417-23.637
					c-7.772-2.25-13.792-4.98-17.857-7.163C213.723,345.989,211.617,359.663,210.517,366.473z"/>
				<path style="fill:#8C545F;" d="M180.639,267.203c-7.526,12.852-6.426,24.082,16.846,24.429
					c23.272,0.347,41.912-22.808,41.912-22.808s14.993,2.547,15.804-0.868c0.81-3.415-8.105-2.489-8.105-2.489
					s13.139-0.06,13.257-4.125c0.057-1.96-2.084-2.127-2.084-2.127s2.214-0.26,2.258-2.128c0.043-1.867-2.648-2.431-2.648-2.431
					s3.256-0.824,3.256-2.345c0-2.345-8.119-2.214-11.94-1.867l-7.598-1.91c0,0-6.661,5.791-14.588,9.117
					C214.591,262.861,180.639,267.203,180.639,267.203z"/>
				<path style="fill:none;stroke:#1C0000;stroke-linecap:round;stroke-linejoin:round;stroke-miterlimit:10;" d="M201.361,263.995
					c9.491-1.696,19.887-3.927,25.648-6.344c7.927-3.326,14.588-9.117,14.588-9.117c3.68-2.56,7.58-4.604,12.041-3.552"/>
				<g>
					<path style="fill:none;stroke:#1C0000;stroke-linecap:round;stroke-linejoin:round;stroke-miterlimit:10;" d="M180.639,267.203
						c-7.526,12.852-6.426,24.082,16.846,24.429c23.272,0.347,41.912-22.808,41.912-22.808s14.993,2.547,15.804-0.868
						c0.81-3.415-8.105-2.489-8.105-2.489s13.139-0.06,13.257-4.125c0.057-1.96-2.084-2.127-2.084-2.127s2.214-0.26,2.258-2.128
						c0.043-1.867-2.648-2.431-2.648-2.431s3.256-0.824,3.256-2.345c0-2.345-8.119-2.214-11.94-1.867"/>
					<path style="fill:none;stroke:#1C0000;stroke-linecap:round;stroke-linejoin:round;stroke-miterlimit:10;" d="M257.878,254.655
						c0,0-3.604,0.912-8.93,0.391"/>
					<path style="fill:none;stroke:#1C0000;stroke-linecap:round;stroke-linejoin:round;stroke-miterlimit:10;" d="M258.269,259.214
						c0,0-5.557,1.52-10.42,0.81"/>
				</g>
				<g>
					<path style="fill:#8C545F;" d="M337.635,298.463c-8.655,4.465-14.646-2.316-18.004-12.157
						c-3.358-9.841-3.705-11.578-3.705-11.578s-8.64-2.489-8.553-4.182c0.087-1.693,6.86,0,6.86,0s-8.683-3.43-8.162-5.688
						s8.814,1.693,8.814,1.693s-9.901-3.864-8.836-6.686c1.064-2.822,10.312,2.518,10.312,2.518s-8.987-4.559-8.553-7.207
						c0.434-2.649,10.898,3.005,10.898,3.005s7.989,5.663,11.694,10.642c3.705,4.979,11.057,10.71,12.041,16.499
						C343.424,291.111,341.488,296.475,337.635,298.463z"/>
					<path style="fill:none;stroke:#1C0000;stroke-linecap:round;stroke-linejoin:round;stroke-miterlimit:10;" d="M330.399,268.824
						c3.705,4.979,11.057,10.71,12.041,16.499c0.984,5.789-0.952,11.153-4.805,13.141c-8.655,4.465-14.646-2.316-18.004-12.157
						c-3.358-9.841-3.705-11.578-3.705-11.578s-8.64-2.489-8.553-4.182c0.087-1.693,6.86,0,6.86,0s-8.683-3.43-8.162-5.688
						s8.814,1.693,8.814,1.693s-9.901-3.864-8.836-6.686c1.064-2.822,10.312,2.518,10.312,2.518s-8.987-4.559-8.553-7.207
						c0.434-2.649,10.898,3.005,10.898,3.005"/>
				</g>
			</g>
			<g>
				<path style="fill:#8C545F;" d="M259.485,223.786c-8.286,0.483-16.034,1.868-23.206,3.898
					c4.716,4.43,13.889,10.914,29.686,10.459c9.905-0.285,16.485-3.883,20.804-8.028C278.374,225.81,269.184,223.22,259.485,223.786
					z"/>
				<path style="fill:#BC2856;" d="M245.346,196.048c0,0-14.365-3.64-15.946-23.41c-1.581-19.77,8.666-48.425,41.315-46.688
					c32.65,1.737,40.291,40.986,23.793,52.448C278.01,189.861,245.346,196.048,245.346,196.048z"/>
				<polygon style="fill:#8C545F;" points="254.796,200.792 253.059,225.547 271.728,227.683 271.728,202.429 				"/>
				<path style="fill:#7F4553;" d="M253.974,212.499c2.688,2.1,8.377,4.924,17.754,2.203v-12.273l-16.933-1.637L253.974,212.499z"/>
				<path style="fill:#8C545F;" d="M238.066,184.303c0,0,5.018,24.759,25.974,26.264c20.956,1.505,35.038-13.21,33.189-40.187
					c0,0-24.661-1.823-28.482-18.38c0,0-9.147,16.209-25.24,9.957c0,0-0.058,12.186-3.444,12.446
					c-3.387,0.26-1.997-8.249-8.857-8.857C224.346,164.939,220.613,181.872,238.066,184.303z"/>
				<g>
					
						<line style="fill:none;stroke:#1C0000;stroke-linecap:round;stroke-linejoin:round;stroke-miterlimit:10;" x1="229.4" y1="175.809" x2="233.221" y2="171.901"/>
					<path style="fill:none;stroke:#1C0000;stroke-linecap:round;stroke-linejoin:round;stroke-miterlimit:10;" d="M250.107,171.901
						c0,0,7.989-6.845,13.314,0"/>
					<path style="fill:none;stroke:#1C0000;stroke-linecap:round;stroke-linejoin:round;stroke-miterlimit:10;" d="M280.21,173.855
						c0,0,4.965-5.474,10.536,0"/>
					<path style="fill:none;stroke:#1C0000;stroke-linecap:round;stroke-linejoin:round;stroke-miterlimit:10;" d="M270.716,171.901
						c0,0,5.21,3.603,4.979,5.918s-2.486,2.316-2.486,2.316"/>
				</g>
				<path style="fill:#1C0000;stroke:#1C0000;stroke-linecap:round;stroke-linejoin:round;stroke-miterlimit:10;" d="
					M256.356,185.685l19.798,4.052c0,0-2.482,7.541-10.652,6.136C258.092,194.6,256.356,185.685,256.356,185.685z"/>
				<g>
					<path style="fill:#BC7588;" d="M291.288,198.38c-0.686-2.571-3.024-4.467-5.811-4.467c-3.325,0-6.021,2.696-6.021,6.021
						c0,2.821,1.943,5.182,4.562,5.835C286.844,203.845,289.291,201.376,291.288,198.38z"/>
					<path style="fill:#BC7588;" d="M246.61,201.593c2.157-0.916,3.671-3.053,3.671-5.544c0-3.325-2.695-6.02-6.02-6.02
						c-1.464,0-2.805,0.523-3.849,1.392C241.745,194.552,243.736,198.267,246.61,201.593z"/>
				</g>
				<circle style="fill:#BC2856;" cx="229.4" cy="133.592" r="16.499"/>
				<circle style="fill:#BC2856;" cx="299.819" cy="137.664" r="16.499"/>
				<path style="fill:none;stroke:#1C0000;stroke-linecap:round;stroke-linejoin:round;stroke-miterlimit:10;" d="M248.73,203.809
					c3.769,3.547,8.761,6.288,15.31,6.758c17.413,1.251,30.08-8.698,32.805-27.574"/>
				
					<circle style="fill:none;stroke:#1C0000;stroke-linecap:round;stroke-linejoin:round;stroke-miterlimit:10;" cx="229.4" cy="133.592" r="16.499"/>
				<path style="fill:none;stroke:#1C0000;stroke-linecap:round;stroke-linejoin:round;stroke-miterlimit:10;" d="M270.716,125.951
					c23.285,1.239,33.85,21.557,32.011,37.268"/>
			</g>
		</g>
	</g>
	<g id="BOY_GAMMING">
		<g>
			<path style="fill:#67B292;" d="M466.577,204.746c-4.323-0.944-8.594,1.795-9.538,6.118l-34.466,157.791
				c-0.944,4.323,1.795,8.593,6.118,9.538l100.472,21.946c92.691-38.817,142.11-95.413,155.817-147.688L466.577,204.746z"/>
			<path style="fill:#6275C1;" d="M667.572,227.908l24.598,4.337c4.358,0.768,7.268,4.924,6.499,9.282l-28.046,159.058
				c-0.769,4.358-4.924,7.268-9.282,6.499l-24.598-4.337L667.572,227.908z"/>
			<path style="fill:#829ADA;" d="M421.44,364.784l231.528,40.825c4.358,0.768,8.514-2.141,9.282-6.499l28.046-159.058
				c0.768-4.358-2.141-8.514-6.499-9.282l-231.528-40.825c-4.358-0.768-8.514,2.141-9.282,6.499L414.94,355.501
				C414.172,359.859,417.082,364.015,421.44,364.784z"/>
			<path style="fill:#D9E3FC;" d="M654.468,397.736l28.046-159.057c0.011-0.06-0.03-0.118-0.09-0.128l-231.528-40.825
				c-0.06-0.011-0.117,0.029-0.128,0.09l-28.046,159.058c-0.011,0.06,0.03,0.117,0.09,0.128l231.528,40.825
				C654.399,397.837,654.457,397.796,654.468,397.736z"/>
			<path style="fill:#BECDE5;" d="M596.07,223.324l-37.742-6.655l-20.929,160.537l56.997,10.05
				c0.254-11.244,1.429-46.927,1.429-46.927s30.959-2.229,34.915-39.92c3.956-37.692-54.312-65.103-54.312-65.103l0.655-4.723
				C577.084,230.583,591.245,236.844,596.07,223.324z"/>
			<g>
				<path style="fill:none;stroke:#1C0000;stroke-linecap:round;stroke-linejoin:round;stroke-miterlimit:10;" d="M683.796,230.769
					l8.374,1.477c4.358,0.768,7.268,4.924,6.499,9.282l-28.046,159.058c-0.769,4.358-4.924,7.268-9.282,6.499l-8.374-1.477"/>
				<path style="fill:none;stroke:#1C0000;stroke-linecap:round;stroke-linejoin:round;stroke-miterlimit:10;" d="M421.44,364.784
					l231.528,40.825c4.358,0.768,8.514-2.141,9.282-6.499l28.046-159.058c0.768-4.358-2.141-8.514-6.499-9.282l-231.528-40.825
					c-4.358-0.768-8.514,2.141-9.282,6.499L414.94,355.501C414.172,359.859,417.082,364.015,421.44,364.784z"/>
			</g>
		</g>
		<g>
			<g>
				<polygon style="fill:#6574C3;" points="583.097,385.23 585.113,341.649 541.232,333.892 501.752,330.766 495.44,369.731 				"/>
				<path style="fill:#5568B5;" d="M569.967,345.176l-2.589,37.275l15.719,2.779l2.016-43.581l-38.187-6.751
					C552.29,338.936,559.699,342.69,569.967,345.176z"/>
				<path style="fill:#BC2856;" d="M595.301,254.815c-7.179-6.816-14.907-11.565-23.083-14.681
					c-1.779,1.586-18.766,1.509-18.766,1.509l-14.852-6.336l0,0c-5.336,0.222-10.779,0.81-16.312,1.678
					c-9.058,1.422-18.296,4.314-26.567,7.905l-4.969,18.348l13.211,11.438l4.734,0.747l-6.947,55.342
					c48.164,17.367,83.361,10.883,83.361,10.883l0.695-13.43l1.961-37.922l13.495,5.606l14.888-12.715
					C612.875,274.56,606.429,265.38,595.301,254.815z"/>
				<path style="fill:#AD1E51;" d="M588.486,276.42l-1.829,35.371l0,0l1.112-21.495l5.772,2.397
					C591.926,282.798,588.486,276.42,588.486,276.42z"/>
				<path style="fill:#AD1E51;" d="M582.726,326.879l-20.638-0.791l-17.543-13.187l-14.098-26.4v-15.159
					c0,0-20.895,1.607-27.62,2.349l1.137,0.984l4.734,0.748l-1.9,15.138l15.49-2.792l-10.112,19v7.121l20.913,0.527
					c0,0,2.153,18.739,28.705,28.311c14.634,0.516,23.319-1.08,23.319-1.08l0.695-13.43l0.03-0.575L582.726,326.879z"/>
				<path style="fill:#F1B39C;" d="M519.292,264.366c0,0,4.038-1.288,5.514-2.677c1.476-1.389,6.23-5.25,8.846-1.583
					c2.616,3.667-6.806,5.013-6.806,5.013L519.292,264.366z"/>
				<path style="fill:#F1B39C;" d="M503.964,274.676l-8.243-29.786c-16.638,7.224-29.36,17.283-28.819,23.934L503.964,274.676z"/>
				<path style="fill:#F1B39C;" d="M616.152,283.186l-28.383,7.109l-1.961,37.922l32.737-23.677
					C619.436,297.484,618.943,290.536,616.152,283.186z"/>
				<path style="fill:#D68C7B;" d="M586.657,311.791l7.439-3.466c0.699-7.396-0.084-14.023-1.264-19.297l-5.063,1.268
					L586.657,311.791z"/>
				<g>
					<polygon style="fill:#829ADA;stroke:#1C0000;stroke-linecap:round;stroke-linejoin:round;stroke-miterlimit:10;" points="
						520.045,286.093 508.699,302.052 566.622,303.326 562.801,287.769 					"/>
					<g>
						<path style="fill:#1C0000;stroke:#1C0000;stroke-linecap:round;stroke-linejoin:round;stroke-miterlimit:10;" d="
							M534.111,291.729l-6.539-0.772l4.479-37.971c0.14-1.186,1.214-2.033,2.4-1.893l2.246,0.265c1.185,0.14,2.033,1.214,1.893,2.4
							L534.111,291.729z"/>
						<path style="fill:#1C0000;stroke:#1C0000;stroke-linecap:round;stroke-linejoin:round;stroke-miterlimit:10;" d="
							M527.948,287.769c-0.272,2.31-2.273,4.789-5.659,5.267c0,0,2.224,4.137,8.159,4.617c5.648,0.457,8.159-2.75,8.159-2.75
							s-4.594-1.259-4.1-6.513L527.948,287.769z"/>
					</g>
					<path style="fill:none;stroke:#1C0000;stroke-linecap:round;stroke-linejoin:round;stroke-miterlimit:10;" d="M547.319,298.133
						c0.013-0.791-0.618-1.443-1.409-1.456c-0.791-0.013-1.443,0.618-1.456,1.409c-0.013,0.791,0.618,1.443,1.409,1.456
						C546.654,299.555,547.306,298.924,547.319,298.133z"/>
					<path style="fill:none;stroke:#1C0000;stroke-linecap:round;stroke-linejoin:round;stroke-miterlimit:10;" d="M553.57,298.234
						c0.013-0.791-0.618-1.443-1.409-1.456c-0.791-0.013-1.443,0.618-1.456,1.409c-0.013,0.791,0.618,1.443,1.409,1.456
						C552.906,299.656,553.557,299.025,553.57,298.234z"/>
					<path style="fill:none;stroke:#1C0000;stroke-linecap:round;stroke-linejoin:round;stroke-miterlimit:10;" d="M559.958,298.338
						c0.013-0.791-0.618-1.443-1.409-1.456c-0.791-0.013-1.443,0.618-1.456,1.409c-0.013,0.791,0.618,1.443,1.409,1.456
						C559.294,299.76,559.945,299.129,559.958,298.338z"/>
					<path style="fill:none;stroke:#1C0000;stroke-linecap:round;stroke-linejoin:round;stroke-miterlimit:10;" d="M547.41,292.528
						c0.013-0.791-0.618-1.443-1.409-1.456c-0.791-0.013-1.443,0.618-1.456,1.409c-0.013,0.791,0.618,1.443,1.409,1.456
						C546.745,293.95,547.397,293.319,547.41,292.528z"/>
					<path style="fill:none;stroke:#1C0000;stroke-linecap:round;stroke-linejoin:round;stroke-miterlimit:10;" d="M553.032,292.619
						c0.013-0.791-0.618-1.443-1.409-1.456c-0.791-0.013-1.443,0.618-1.456,1.409c-0.013,0.791,0.618,1.443,1.409,1.456
						C552.367,294.041,553.019,293.41,553.032,292.619z"/>
					<path style="fill:none;stroke:#1C0000;stroke-linecap:round;stroke-linejoin:round;stroke-miterlimit:10;" d="M558.617,292.71
						c0.013-0.791-0.618-1.443-1.409-1.456c-0.791-0.013-1.443,0.618-1.456,1.409c-0.013,0.791,0.618,1.443,1.409,1.456
						C557.952,294.132,558.604,293.501,558.617,292.71z"/>
					<polygon style="fill:#1C0000;stroke:#1C0000;stroke-linecap:round;stroke-linejoin:round;stroke-miterlimit:10;" points="
						508.699,302.052 508.699,308.362 566.622,310.273 566.622,303.326 					"/>
					<path style="fill:none;stroke:#1C0000;stroke-linecap:round;stroke-linejoin:round;stroke-miterlimit:10;" d="M513.909,304.715
						c0,0-31.376,1.389-35.081,28.829c-3.705,27.44,49.637,39.166,79.698,28.672c26.555-9.271,70.446-37.665,106.48-24.237"/>
				</g>
				
					<line style="fill:none;stroke:#1C0000;stroke-linecap:round;stroke-linejoin:round;stroke-miterlimit:10;" x1="586.657" y1="311.791" x2="588.487" y2="276.42"/>
				<path style="fill:#F1B39C;" d="M466.902,268.824c-1.158,9.494,9.61,20.146,27.671,16.556
					c18.061-3.589,27.671-9.957,27.671-9.957s7.193,1.341,13.329,0.811c6.136-0.53,6.86-2.981,6.396-4.892
					c0,0,1.642-0.941,1.526-2.793c-0.116-1.852-1.526-2.45-1.526-2.45s1.925-3.238-0.738-4.743c0,0,1.621-3.3-0.521-4.11
					c-2.142-0.81-7.35,3.431-10.478,4.689c-5.036,2.026-10.941,2.431-10.941,2.431s-22.287-3.763-35.313-3.126
					C470.955,261.877,466.902,268.824,466.902,268.824z"/>
				<g>
					<path style="fill:none;stroke:#1C0000;stroke-linecap:round;stroke-linejoin:round;stroke-miterlimit:10;" d="M541.232,261.356
						c-1.664,1.766-5.659,3.763-5.659,3.763"/>
					<path style="fill:none;stroke:#1C0000;stroke-linecap:round;stroke-linejoin:round;stroke-miterlimit:10;" d="M541.97,266.099
						c-1.997,2.287-5.875,2.45-5.875,2.45"/>
					<path style="fill:none;stroke:#1C0000;stroke-linecap:round;stroke-linejoin:round;stroke-miterlimit:10;" d="M541.97,271.342
						c-1.606,0.955-5.6,0.753-5.6,0.753"/>
				</g>
				<path style="fill:#F1B39C;" d="M556.863,315.917c0,0,7.352-6.542,5.094-8.741s-5.615,3.068-8.741,3.242
					c0,0,4.284-12.388,1.853-13.315c-2.431-0.926-6.426,11.115-6.426,11.115s0.695-12.041-1.737-12.099
					c-2.431-0.058-2.547,11.809-2.547,11.809s-1.968-10.883-4.226-10.594c-2.258,0.289-0.868,7.989-0.405,10.71
					c0,0-2.142-6.773-4.284-6.599c-2.142,0.174,0.797,11.03,3.126,14.878c5.905,9.754,22.403,24.516,50.451,19.74
					c28.047-4.776,29.524-31.521,29.524-31.521s-12.59-3.806-34.994,8.944C567.833,322.429,556.863,315.917,556.863,315.917z"/>
				<path style="fill:none;stroke:#1C0000;stroke-linecap:round;stroke-linejoin:round;stroke-miterlimit:10;" d="M594.096,308.325
					c-3.224,1.31-6.744,2.997-10.546,5.161c-15.717,8.944-26.687,2.431-26.687,2.431s7.352-6.542,5.094-8.741
					s-5.615,3.068-8.741,3.242c0,0,4.284-12.388,1.853-13.315c-2.431-0.926-6.426,11.115-6.426,11.115s0.695-12.041-1.737-12.099
					c-2.431-0.058-2.547,11.809-2.547,11.809s-1.968-10.883-4.226-10.594c-2.258,0.289-0.868,7.989-0.405,10.71
					c0,0-2.142-6.773-4.284-6.599c-2.142,0.174,0.797,11.03,3.126,14.878c5.905,9.754,22.403,24.516,50.451,19.74
					c28.047-4.776,29.524-31.521,29.524-31.521"/>
				<path style="fill:none;stroke:#1C0000;stroke-linecap:round;stroke-linejoin:round;stroke-miterlimit:10;" d="M466.902,268.824
					c-1.158,9.494,9.61,20.146,27.671,16.556c18.061-3.589,27.671-9.957,27.671-9.957s7.193,1.341,13.329,0.811
					c6.136-0.53,6.86-2.981,6.396-4.892c0,0,1.642-0.941,1.526-2.793c-0.116-1.852-1.526-2.45-1.526-2.45s1.925-3.238-0.738-4.743
					c0,0,1.621-3.3-0.521-4.11c-2.142-0.81-7.35,3.431-10.478,4.689"/>
			</g>
			<g>
				<path style="fill:#1C0000;stroke:#1C0000;stroke-linecap:round;stroke-linejoin:round;stroke-miterlimit:10;" d="
					M531.739,194.764c0,0-10.594,4.26-14.067-5.118c-3.473-9.378,4.11-13.662,4.11-13.662s-5.789-2.316-5.789-11.346
					c0-9.031,10.735-10.42,10.735-10.42s-4.136-10.999,8.542-20.811c12.678-9.812,22.75,2.171,22.75,2.171s7.468-10.42,23.185-8.162
					c15.717,2.258,13.372,17.367,13.372,17.367s4.66-2.431,8.134,0.347c3.473,2.779,0,7.641,0,7.641s11.404,1.563,12.707,17.627
					s-12.678,20.927-12.678,20.927s4.689,6.513,2.779,14.415s-13.459,7.294-13.459,7.294s1.216,8.249-6.339,12.33
					c-7.555,4.081-18.095-3.039-18.095-3.039L531.739,194.764z"/>
				<path style="fill:#F1B39C;" d="M572.219,240.133c-10.533-4.015-21.81-5.318-33.619-4.827c1.354,3.929,4.822,9.022,13.906,11.925
					C561.608,250.139,568.239,244.998,572.219,240.133z"/>
				<path style="fill:#F1B39C;" d="M549.239,221.137l-2.594,22.548c0,0,7.815,5.494,18.062,1.618c0,0,2.605-22.545,2.345-22.545
					S549.239,221.137,549.239,221.137z"/>
				<path style="fill:#D68C7B;" d="M549.239,221.137l-0.981,8.526c3.547,1.928,9.944,4.023,18.107,0.781
					c0.449-4.215,0.788-7.686,0.686-7.686C566.791,222.758,549.239,221.137,549.239,221.137z"/>
				<path style="fill:#F1B39C;" d="M528.265,179.167c0,0-6.484,20.729,7.178,36.244c13.662,15.514,35.428,13.546,47.354,0
					c5.843-6.637,8.629-12.581,9.95-19.156c0,0,11.353,0.163,14.942-8.983c3.589-9.146-5.21-11.925-10.999-8.105
					c-5.789,3.821-3.821,6.599-7.989,7.294c-4.168,0.695-5.442-7.931-5.442-7.931s-16.209,4.052-19.046-11.636
					c0,0-5.615,10.073-15.92,4.631C548.295,171.526,541.406,185.477,528.265,179.167z"/>
				<g>
					
						<line style="fill:none;stroke:#1C0000;stroke-linecap:round;stroke-linejoin:round;stroke-miterlimit:10;" x1="597.009" y1="184.291" x2="604.129" y2="187.243"/>
					<path style="fill:none;stroke:#1C0000;stroke-linecap:round;stroke-linejoin:round;stroke-miterlimit:10;" d="M553.071,183.813
						l-0.26,4.342c0,0-3.387,2.909-2.909,5.47s5.731,0,5.731,0"/>
					<path style="fill:none;stroke:#1C0000;stroke-linecap:round;stroke-linejoin:round;stroke-miterlimit:10;" d="M534.488,186.462
						c0,0,4.646-4.385,9.639,0.955"/>
					<path style="fill:none;stroke:#1C0000;stroke-linecap:round;stroke-linejoin:round;stroke-miterlimit:10;" d="M563.969,189.288
						c0,0,5.905-5.823,11.245,1.081"/>
				</g>
				<path style="fill:#1C0000;stroke:#1C0000;stroke-linecap:round;stroke-linejoin:round;stroke-miterlimit:10;" d="
					M545.169,203.134l23.271-3.821c0,0-2.258,8.533-11.636,9.575C547.427,209.93,545.169,203.134,545.169,203.134z"/>
				<g>
					<path style="fill:#D68C7B;" d="M542.638,211.333c0-3.964-3.214-7.178-7.178-7.178c-2.234,0-4.229,1.021-5.545,2.62
						c1.306,2.946,3.097,5.874,5.529,8.636c0.827,0.939,1.685,1.813,2.567,2.625C540.714,217.007,542.638,214.398,542.638,211.333z"
						/>
					<path style="fill:#D68C7B;" d="M577.79,207.441c-3.965,0-7.178,3.214-7.178,7.178c0,3.22,2.12,5.944,5.04,6.854
						c2.623-1.638,5.039-3.668,7.146-6.062c0.707-0.803,1.368-1.596,1.988-2.382C584.061,209.831,581.207,207.441,577.79,207.441z"
						/>
				</g>
			</g>
		</g>
	</g>
	<g id="DOTS">
		<path style="fill:none;stroke:#1C0000;stroke-linecap:round;stroke-linejoin:round;stroke-miterlimit:10;" d="M124.973,70.353
			c0-3.727-3.022-6.749-6.749-6.749s-6.749,3.022-6.749,6.749c0,3.727,3.022,6.749,6.749,6.749S124.973,74.081,124.973,70.353z"/>
		
			<circle style="fill:none;stroke:#1C0000;stroke-linecap:round;stroke-linejoin:round;stroke-miterlimit:10;" cx="436.682" cy="409.922" r="6.749"/>
		
			<circle style="fill:none;stroke:#BC2856;stroke-linecap:round;stroke-linejoin:round;stroke-miterlimit:10;" cx="496.679" cy="75.124" r="6.749"/>
		<path style="fill:none;stroke:#1C0000;stroke-linecap:round;stroke-linejoin:round;stroke-miterlimit:10;" d="M248.948,394.478
			c0-1.628-1.32-2.948-2.948-2.948c-1.628,0-2.948,1.32-2.948,2.948c0,1.628,1.32,2.948,2.948,2.948
			C247.628,397.425,248.948,396.106,248.948,394.478z"/>
		<path style="fill:none;stroke:#1C0000;stroke-linecap:round;stroke-linejoin:round;stroke-miterlimit:10;" d="M401.932,182.45
			c0-1.628-1.32-2.948-2.948-2.948c-1.628,0-2.948,1.32-2.948,2.948c0,1.628,1.32,2.948,2.948,2.948
			C400.612,185.398,401.932,184.078,401.932,182.45z"/>
		<path style="fill:none;stroke:#1C0000;stroke-linecap:round;stroke-linejoin:round;stroke-miterlimit:10;" d="M96.623,227.683
			c0-1.628-1.32-2.948-2.948-2.948c-1.628,0-2.948,1.32-2.948,2.948c0,1.628,1.32,2.948,2.948,2.948
			C95.304,230.631,96.623,229.311,96.623,227.683z"/>
		
			<circle style="fill:none;stroke:#1C0000;stroke-linecap:round;stroke-linejoin:round;stroke-miterlimit:10;" cx="592.254" cy="105.578" r="2.948"/>
		<path style="fill:none;stroke:#1C0000;stroke-linecap:round;stroke-linejoin:round;stroke-miterlimit:10;" d="M324.051,58.576
			c0-1.628-1.32-2.948-2.948-2.948c-1.628,0-2.948,1.32-2.948,2.948c0,1.628,1.32,2.948,2.948,2.948
			C322.732,61.524,324.051,60.204,324.051,58.576z"/>
		<path style="fill:none;stroke:#1C0000;stroke-linecap:round;stroke-linejoin:round;stroke-miterlimit:10;" d="M136.46,453.707
			c0-1.628-1.32-2.948-2.948-2.948c-1.628,0-2.948,1.32-2.948,2.948c0,1.628,1.32,2.948,2.948,2.948
			C135.14,456.655,136.46,455.335,136.46,453.707z"/>
		<path style="fill:none;stroke:#1C0000;stroke-linecap:round;stroke-linejoin:round;stroke-miterlimit:10;" d="M678.828,423.393
			c0-1.628-1.32-2.948-2.948-2.948c-1.628,0-2.948,1.32-2.948,2.948c0,1.628,1.32,2.948,2.948,2.948
			C677.508,426.341,678.828,425.022,678.828,423.393z"/>
		
			<circle style="fill:none;stroke:#1C0000;stroke-linecap:round;stroke-linejoin:round;stroke-miterlimit:10;" cx="471.438" cy="449.269" r="2.948"/>
	</g>
</g>
</svg>
